<?xml version="1.0" encoding="UTF-8" standalone="no"?>
<!-- Created with Inkscape (http://www.inkscape.org/) -->

<svg
   xmlns:dc="http://purl.org/dc/elements/1.1/"
   xmlns:cc="http://creativecommons.org/ns#"
   xmlns:rdf="http://www.w3.org/1999/02/22-rdf-syntax-ns#"
   xmlns:svg="http://www.w3.org/2000/svg"
   xmlns="http://www.w3.org/2000/svg"
   xmlns:sodipodi="http://sodipodi.sourceforge.net/DTD/sodipodi-0.dtd"
   xmlns:inkscape="http://www.inkscape.org/namespaces/inkscape"
   width="210mm"
   height="297mm"
   viewBox="0 0 210 297"
   version="1.1"
   id="svg8"
   inkscape:version="0.92.2 (5c3e80d, 2017-08-06)"
   sodipodi:docname="dibujo.svg">
  <defs
     id="defs2">
    <inkscape:path-effect
       effect="skeletal"
       id="path-effect1384"
       is_visible="true"
       pattern="M 0,5 C 0,2.24 2.24,0 5,0 7.76,0 10,2.24 10,5 10,7.76 7.76,10 5,10 2.24,10 0,7.76 0,5 Z"
       copytype="single_stretched"
       prop_scale="0.26458333"
       scale_y_rel="false"
       spacing="0"
       normal_offset="0"
       tang_offset="0"
       prop_units="false"
       vertical_pattern="false"
       fuse_tolerance="0" />
    <inkscape:path-effect
       effect="skeletal"
       id="path-effect1368"
       is_visible="true"
       pattern="M 0,5 C 0,2.24 2.24,0 5,0 7.76,0 10,2.24 10,5 10,7.76 7.76,10 5,10 2.24,10 0,7.76 0,5 Z"
       copytype="single_stretched"
       prop_scale="0.26458333"
       scale_y_rel="false"
       spacing="0"
       normal_offset="0"
       tang_offset="0"
       prop_units="false"
       vertical_pattern="false"
       fuse_tolerance="0" />
    <inkscape:path-effect
       effect="skeletal"
       id="path-effect1364"
       is_visible="true"
       pattern="M 0,5 C 0,2.24 2.24,0 5,0 7.76,0 10,2.24 10,5 10,7.76 7.76,10 5,10 2.24,10 0,7.76 0,5 Z"
       copytype="single_stretched"
       prop_scale="0.26458333"
       scale_y_rel="false"
       spacing="0"
       normal_offset="0"
       tang_offset="0"
       prop_units="false"
       vertical_pattern="false"
       fuse_tolerance="0" />
    <inkscape:path-effect
       effect="skeletal"
       id="path-effect1360"
       is_visible="true"
       pattern="M 0,5 C 0,2.24 2.24,0 5,0 7.76,0 10,2.24 10,5 10,7.76 7.76,10 5,10 2.24,10 0,7.76 0,5 Z"
       copytype="single_stretched"
       prop_scale="0.26458333"
       scale_y_rel="false"
       spacing="0"
       normal_offset="0"
       tang_offset="0"
       prop_units="false"
       vertical_pattern="false"
       fuse_tolerance="0" />
    <inkscape:path-effect
       effect="skeletal"
       id="path-effect409"
       is_visible="true"
       pattern="M 0,5 C 0,2.24 2.24,0 5,0 7.76,0 10,2.24 10,5 10,7.76 7.76,10 5,10 2.24,10 0,7.76 0,5 Z"
       copytype="single_stretched"
       prop_scale="0.26458333"
       scale_y_rel="false"
       spacing="0"
       normal_offset="0"
       tang_offset="0"
       prop_units="false"
       vertical_pattern="false"
       fuse_tolerance="0" />
    <inkscape:path-effect
       effect="bspline"
       id="path-effect407"
       is_visible="true"
       weight="33.333333"
       steps="2"
       helper_size="0"
       apply_no_weight="true"
       apply_with_weight="true"
       only_selected="false" />
    <inkscape:path-effect
       effect="skeletal"
       id="path-effect387"
       is_visible="true"
       pattern="M 0,5 C 0,2.24 2.24,0 5,0 7.76,0 10,2.24 10,5 10,7.76 7.76,10 5,10 2.24,10 0,7.76 0,5 Z"
       copytype="single_stretched"
       prop_scale="0.26458333"
       scale_y_rel="false"
       spacing="0"
       normal_offset="0"
       tang_offset="0"
       prop_units="false"
       vertical_pattern="false"
       fuse_tolerance="0" />
    <inkscape:path-effect
       effect="skeletal"
       id="path-effect383"
       is_visible="true"
       pattern="M 0,5 C 0,2.24 2.24,0 5,0 7.76,0 10,2.24 10,5 10,7.76 7.76,10 5,10 2.24,10 0,7.76 0,5 Z"
       copytype="single_stretched"
       prop_scale="0.26458333"
       scale_y_rel="false"
       spacing="0"
       normal_offset="0"
       tang_offset="0"
       prop_units="false"
       vertical_pattern="false"
       fuse_tolerance="0" />
    <inkscape:path-effect
       effect="skeletal"
       id="path-effect379"
       is_visible="true"
       pattern="M 0,5 C 0,2.24 2.24,0 5,0 7.76,0 10,2.24 10,5 10,7.76 7.76,10 5,10 2.24,10 0,7.76 0,5 Z"
       copytype="single_stretched"
       prop_scale="0.26458333"
       scale_y_rel="false"
       spacing="0"
       normal_offset="0"
       tang_offset="0"
       prop_units="false"
       vertical_pattern="false"
       fuse_tolerance="0" />
    <inkscape:path-effect
       effect="skeletal"
       id="path-effect375"
       is_visible="true"
       pattern="M 0,5 C 0,2.24 2.24,0 5,0 7.76,0 10,2.24 10,5 10,7.76 7.76,10 5,10 2.24,10 0,7.76 0,5 Z"
       copytype="single_stretched"
       prop_scale="0.26458333"
       scale_y_rel="false"
       spacing="0"
       normal_offset="0"
       tang_offset="0"
       prop_units="false"
       vertical_pattern="false"
       fuse_tolerance="0" />
    <inkscape:path-effect
       effect="skeletal"
       id="path-effect359"
       is_visible="true"
       pattern="M 0,5 C 0,2.24 2.24,0 5,0 7.76,0 10,2.24 10,5 10,7.76 7.76,10 5,10 2.24,10 0,7.76 0,5 Z"
       copytype="single_stretched"
       prop_scale="0.26458333"
       scale_y_rel="false"
       spacing="0"
       normal_offset="0"
       tang_offset="0"
       prop_units="false"
       vertical_pattern="false"
       fuse_tolerance="0" />
    <inkscape:path-effect
       effect="skeletal"
       id="path-effect319"
       is_visible="true"
       pattern="M 0,5 C 0,2.24 2.24,0 5,0 7.76,0 10,2.24 10,5 10,7.76 7.76,10 5,10 2.24,10 0,7.76 0,5 Z"
       copytype="single_stretched"
       prop_scale="0.26458333"
       scale_y_rel="false"
       spacing="0"
       normal_offset="0"
       tang_offset="0"
       prop_units="false"
       vertical_pattern="false"
       fuse_tolerance="0" />
    <inkscape:path-effect
       effect="skeletal"
       id="path-effect315"
       is_visible="true"
       pattern="M 0,5 C 0,2.24 2.24,0 5,0 7.76,0 10,2.24 10,5 10,7.76 7.76,10 5,10 2.24,10 0,7.76 0,5 Z"
       copytype="single_stretched"
       prop_scale="0.26458333"
       scale_y_rel="false"
       spacing="0"
       normal_offset="0"
       tang_offset="0"
       prop_units="false"
       vertical_pattern="false"
       fuse_tolerance="0" />
    <inkscape:path-effect
       effect="skeletal"
       id="path-effect311"
       is_visible="true"
       pattern="M 0,5 C 0,2.24 2.24,0 5,0 7.76,0 10,2.24 10,5 10,7.76 7.76,10 5,10 2.24,10 0,7.76 0,5 Z"
       copytype="single_stretched"
       prop_scale="0.26458333"
       scale_y_rel="false"
       spacing="0"
       normal_offset="0"
       tang_offset="0"
       prop_units="false"
       vertical_pattern="false"
       fuse_tolerance="0" />
    <inkscape:path-effect
       effect="skeletal"
       id="path-effect295"
       is_visible="true"
       pattern="M 0,5 C 0,2.24 2.24,0 5,0 7.76,0 10,2.24 10,5 10,7.76 7.76,10 5,10 2.24,10 0,7.76 0,5 Z"
       copytype="single_stretched"
       prop_scale="0.26458333"
       scale_y_rel="false"
       spacing="0"
       normal_offset="0"
       tang_offset="0"
       prop_units="false"
       vertical_pattern="false"
       fuse_tolerance="0" />
    <inkscape:path-effect
       effect="skeletal"
       id="path-effect291"
       is_visible="true"
       pattern="M 0,5 C 0,2.24 2.24,0 5,0 7.76,0 10,2.24 10,5 10,7.76 7.76,10 5,10 2.24,10 0,7.76 0,5 Z"
       copytype="single_stretched"
       prop_scale="0.26458333"
       scale_y_rel="false"
       spacing="0"
       normal_offset="0"
       tang_offset="0"
       prop_units="false"
       vertical_pattern="false"
       fuse_tolerance="0" />
    <inkscape:path-effect
       effect="skeletal"
       id="path-effect287"
       is_visible="true"
       pattern="M 0,5 C 0,2.24 2.24,0 5,0 7.76,0 10,2.24 10,5 10,7.76 7.76,10 5,10 2.24,10 0,7.76 0,5 Z"
       copytype="single_stretched"
       prop_scale="0.26458333"
       scale_y_rel="false"
       spacing="0"
       normal_offset="0"
       tang_offset="0"
       prop_units="false"
       vertical_pattern="false"
       fuse_tolerance="0" />
  </defs>
  <sodipodi:namedview
     id="base"
     pagecolor="#ffffff"
     bordercolor="#666666"
     borderopacity="1.0"
     inkscape:pageopacity="0.0"
     inkscape:pageshadow="2"
     inkscape:zoom="0.35"
     inkscape:cx="400"
     inkscape:cy="560"
     inkscape:document-units="mm"
     inkscape:current-layer="layer1"
     showgrid="false"
     inkscape:snap-grids="true"
     inkscape:snap-to-guides="false"
     showguides="true"
     inkscape:guide-bbox="true"
     inkscape:window-width="1024"
     inkscape:window-height="706"
     inkscape:window-x="-8"
     inkscape:window-y="-8"
     inkscape:window-maximized="1">
    <sodipodi:guide
       position="103.56547,229.05358"
       orientation="0,1"
       id="guide219"
       inkscape:locked="false" />
    <sodipodi:guide
       position="102.80952,120.95238"
       orientation="1,0"
       id="guide221"
       inkscape:locked="false" />
    <sodipodi:guide
       position="14.363095,248.70834"
       orientation="0,1"
       id="guide223"
       inkscape:locked="false" />
    <sodipodi:guide
       position="71.059522,263.07144"
       orientation="0,1"
       id="guide225"
       inkscape:locked="false" />
    <sodipodi:guide
       position="43.845237,281.21429"
       orientation="0,1"
       id="guide227"
       inkscape:locked="false" />
    <sodipodi:guide
       position="87.690474,295.57739"
       orientation="0,1"
       id="guide229"
       inkscape:locked="false" />
    <sodipodi:guide
       position="18.142857,207.88691"
       orientation="0,1"
       id="guide231"
       inkscape:locked="false" />
    <sodipodi:guide
       position="52.160713,185.20834"
       orientation="0,1"
       id="guide233"
       inkscape:locked="false" />
    <sodipodi:guide
       position="29.482142,159.50596"
       orientation="0,1"
       id="guide239"
       inkscape:locked="false" />
    <sodipodi:guide
       position="62.744046,141.3631"
       orientation="0,1"
       id="guide241"
       inkscape:locked="false" />
    <sodipodi:guide
       position="150.43452,120.19643"
       orientation="0,1"
       id="guide243"
       inkscape:locked="false" />
    <sodipodi:guide
       position="102.80952,104.32143"
       orientation="0,1"
       id="guide245"
       inkscape:locked="false" />
    <sodipodi:guide
       position="33.261904,84.666669"
       orientation="0,1"
       id="guide247"
       inkscape:locked="false" />
    <sodipodi:guide
       position="50.648808,68.035716"
       orientation="0,1"
       id="guide249"
       inkscape:locked="false" />
    <sodipodi:guide
       position="84.666665,49.892859"
       orientation="0,1"
       id="guide251"
       inkscape:locked="false" />
    <sodipodi:guide
       position="136.07143,40.82143"
       orientation="0,1"
       id="guide253"
       inkscape:locked="false" />
    <sodipodi:guide
       position="174.625,22.678572"
       orientation="0,1"
       id="guide255"
       inkscape:locked="false" />
    <sodipodi:guide
       position="68.035713,5.2916668"
       orientation="0,1"
       id="guide257"
       inkscape:locked="false" />
    <sodipodi:guide
       position="14.363095,287.26191"
       orientation="1,0"
       id="guide259"
       inkscape:locked="false" />
    <sodipodi:guide
       position="29.482142,232.83334"
       orientation="1,0"
       id="guide261"
       inkscape:locked="false" />
    <sodipodi:guide
       position="46.869047,216.95834"
       orientation="1,0"
       id="guide263"
       inkscape:locked="false" />
    <sodipodi:guide
       position="69.547617,234.34524"
       orientation="1,0"
       id="guide265"
       inkscape:locked="false" />
    <sodipodi:guide
       position="89.202379,272.14286"
       orientation="1,0"
       id="guide267"
       inkscape:locked="false" />
    <sodipodi:guide
       position="117.92857,197.30358"
       orientation="1,0"
       id="guide269"
       inkscape:locked="false" />
    <sodipodi:guide
       position="133.04762,240.39286"
       orientation="1,0"
       id="guide271"
       inkscape:locked="false" />
    <sodipodi:guide
       position="153.45833,268.3631"
       orientation="1,0"
       id="guide273"
       inkscape:locked="false" />
    <sodipodi:guide
       position="168.57738,287.26191"
       orientation="1,0"
       id="guide275"
       inkscape:locked="false" />
    <sodipodi:guide
       position="184.45238,213.17858"
       orientation="1,0"
       id="guide277"
       inkscape:locked="false" />
    <sodipodi:guide
       position="196.54761,134.55953"
       orientation="1,0"
       id="guide279"
       inkscape:locked="false" />
  </sodipodi:namedview>
  <metadata
     id="metadata5">
    <rdf:RDF>
      <cc:Work
         rdf:about="">
        <dc:format>image/svg+xml</dc:format>
        <dc:type
           rdf:resource="http://purl.org/dc/dcmitype/StillImage" />
        <dc:title></dc:title>
      </cc:Work>
    </rdf:RDF>
  </metadata>
  <g
     inkscape:label="Capa 1"
     inkscape:groupmode="layer"
     id="layer1">
    <path
       style="fill:#000000;stroke:none;stroke-width:0.26458332px;stroke-linecap:butt;stroke-linejoin:miter;stroke-opacity:1"
       d="m 14.363095,49.803571 c 0.698448,-0.213086 23.421888,74.165469 54.441325,178.003779 -1.833027,4.87988 35.08514,-93.38295 33.25212,-88.50307 5e-5,1.5e-4 0.15893,0.44057 0.15898,0.44072 3.58491,9.9378 28.73832,79.68437 32.32323,89.62216 23.97173,-105.60604 41.63971,-181.242186 42.35411,-181.075493 0.71384,0.166563 -16.93599,75.897473 -42.31257,181.781653 8.625,23.82113 -40.995458,-113.23501 -32.37046,-89.41388 6e-5,1.5e-4 -0.15928,-0.44007 -0.15923,-0.43992 -1.52104,4.04186 -31.75064,84.34793 -33.271688,88.38979 C 36.35839,124.50765 13.665237,50.016477 14.363095,49.803571 Z"
       id="path285"
       inkscape:connector-curvature="0"
       inkscape:path-effect="#path-effect287"
       inkscape:original-d="M 14.363095,49.803571 68.791666,228.20833 102.05357,139.7619 134.55952,229.72024 176.89286,48.291667" />
    <path
       style="fill:#000000;stroke:none;stroke-width:0.26458332px;stroke-linecap:butt;stroke-linejoin:miter;stroke-opacity:1"
       d="m 68.804419,227.80735 c -0.500258,-0.12141 1.120033,-9.49976 6.918846,-22.46342 3.011196,-6.73422 6.055808,-12.3812 10.115626,-20.26424 0.166299,-0.32315 0.332784,-0.6474 0.499279,-0.97259 3.722285,-7.26998 6.651745,-13.47373 9.036076,-19.79605 5.228674,-13.85561 6.170734,-24.13998 6.676354,-24.09153 0.35136,0.0337 0.5054,10.41674 -4.473164,24.88569 -2.227254,6.46888 -5.158629,12.93902 -8.883985,20.20837 -0.16781,0.32745 -0.335751,0.65368 -0.503681,0.97858 -3.786015,7.33025 -7.494153,14.06095 -10.394216,20.01886 -6.084845,12.50469 -8.517207,21.61135 -8.991135,21.49633 z"
       id="path289"
       inkscape:connector-curvature="0"
       inkscape:path-effect="#path-effect291"
       inkscape:original-d="m 68.804419,227.80735 c 7.698549,-31.72076 29.779155,-51.4071 33.246181,-87.58783" />
    <path
       style="fill:#000000;stroke:none;stroke-width:0.26458332px;stroke-linecap:butt;stroke-linejoin:miter;stroke-opacity:1"
       d="m 102.0506,140.21952 c 0.3503,-0.099 1.92938,4.54587 4.62958,12.05041 2.7014,7.50786 6.61433,17.86317 11.00246,29.43343 0,0 0,0 0,0 0.23929,0.63079 0.85633,2.25706 1.09562,2.88785 9.28722,24.47964 16.60608,44.45704 15.76049,44.77596 -0.52097,0.19648 -8.93814,-19.33445 -18.23427,-43.83744 -0.3687,-0.97184 -0.73274,-1.93653 -1.09216,-2.89431 0,0 0,0 0,0 -4.59154,-12.2326 -7.79958,-21.45688 -10.25496,-29.8028 -2.26416,-7.69598 -3.23118,-12.52146 -2.90676,-12.6131 z"
       id="path293"
       inkscape:connector-curvature="0"
       inkscape:path-effect="#path-effect295"
       inkscape:original-d="m 102.0506,140.21952 c 6.82338,24.15529 20.73892,57.99516 32.48815,89.14764" />
    <path
       style="fill:#000000;stroke:none;stroke-width:0.26458332px;stroke-linecap:butt;stroke-linejoin:miter;stroke-opacity:1"
       d="m 68.804419,227.80735 c -0.18234,0.0734 -2.272312,-4.06671 -4.842872,-11.73491 -2.802597,-8.36038 -5.286508,-18.15537 -7.989311,-32.45361 -2.632719,-13.90597 -4.959602,-30.27526 -7.986178,-47.61736 -0.08097,-0.46395 -0.16225,-0.92695 -0.24388,-1.38907 C 44.525377,116.42619 41.220395,101.80785 36.215059,87.949728 31.558509,75.075467 26.418576,66.048104 21.782502,59.44324 c -4.429642,-6.310769 -7.58699,-9.472099 -7.419414,-9.639676 0.103133,-0.103132 3.642702,2.674727 8.464479,8.866425 4.998673,6.418852 10.576565,15.555434 15.494479,28.498315 5.286082,13.892816 8.80979,28.796276 12.025253,46.983406 0.08216,0.4641 0.163874,0.92906 0.245167,1.39491 3.038668,17.41338 5.226356,33.77687 7.616165,47.66813 2.502388,14.52054 4.577041,23.81658 7.017576,32.46745 2.176832,7.71612 3.802097,12.03503 3.578212,12.12515 z"
       id="path309"
       inkscape:connector-curvature="0"
       inkscape:path-effect="#path-effect311"
       inkscape:original-d="M 68.804419,227.80735 C 47.451898,174.76312 55.611566,91.052043 14.363095,49.803571" />
    <path
       style="fill:#000000;stroke:none;stroke-width:0.26458332px;stroke-linecap:butt;stroke-linejoin:miter;stroke-opacity:1"
       d="m 134.53875,229.36716 c -0.27291,0.0119 -1.30514,-9.79052 -1.5282,-25.75088 -0.21976,-15.72438 0.38688,-38.25998 4.99991,-61.99295 0,0 0.0655,-0.33564 0.0655,-0.33564 4.76576,-24.30279 12.9453,-44.077289 20.53341,-58.466106 7.43214,-14.093084 13.56127,-21.803076 13.74778,-21.678732 0.30309,0.202061 -5.15771,8.369374 -12.08398,22.524397 -7.10628,14.522901 -14.88855,34.083441 -19.60082,58.129421 0,0 -0.0649,0.33204 -0.0649,0.33205 -4.56443,23.42587 -5.47253,45.86444 -5.72397,61.48949 -0.25561,15.88442 0.0201,25.73299 -0.3447,25.74895 z"
       id="path313"
       inkscape:connector-curvature="0"
       inkscape:path-effect="#path-effect315"
       inkscape:original-d="m 134.53875,229.36716 c -2.71718,-62.1203 3.00544,-116.00488 37.81839,-168.224305" />
    <path
       style="fill:#000000;stroke:none;stroke-width:0.26458332px;stroke-linecap:butt;stroke-linejoin:miter;stroke-opacity:1"
       d="m 14.363095,49.803571 c 0.704195,-0.317278 4.559978,8.335983 8.742182,21.872071 2.223072,7.186274 4.578589,15.710165 7.283356,24.742905 0.132402,0.442166 0.264846,0.882523 0.397465,1.321325 2.955099,9.768268 5.487666,17.292228 8.717527,24.572348 2.8188,6.31573 5.104548,10.24632 7.544167,13.55805 2.199837,2.98624 3.750949,4.47624 3.601022,4.64758 -0.120561,0.13779 -1.9946,-1.00327 -4.570654,-3.85445 -2.765462,-3.06081 -5.539726,-7.194 -8.560393,-13.42677 C 34.011285,116.04064 31.2011,108.2143 28.254937,98.506836 28.120822,98.065355 27.987222,97.622269 27.854044,97.177456 25.423337,89.058902 22.650384,78.5573 20.940835,72.306284 17.220555,58.723809 13.928719,49.999281 14.363095,49.803571 Z"
       id="path317"
       inkscape:connector-curvature="0"
       inkscape:path-effect="#path-effect319"
       inkscape:original-d="M 14.363095,49.803571 C 25.420361,74.345064 31.630384,123.87674 50.648809,140.51785" />
    <path
       style="fill:#000000;stroke:none;stroke-width:0.26458332px;stroke-linecap:butt;stroke-linejoin:miter;stroke-opacity:1"
       d="m 15.119047,227.45238 c -0.697179,-0.20298 21.02447,-74.93058 52.144544,-179.55639 -3.087608,-8.068696 37.748739,98.66579 34.661129,90.5971 -2e-5,-5e-5 0.13076,0.34187 0.13074,0.34182 2.99495,-7.93589 31.04044,-82.229221 34.03538,-90.165112 28.47199,105.496472 48.30991,180.864792 47.60559,181.050442 -0.70488,0.18581 -20.57222,-75.07836 -47.64441,-180.2948 5.34433,-14.206137 -39.338739,104.55434 -33.9944,90.34821 -2e-5,-5e-5 -0.13061,-0.34214 -0.13063,-0.34219 C 99.713409,133.63263 69.509512,54.486172 67.295929,48.687344 37.573783,153.03917 15.816808,227.65553 15.119047,227.45238 Z"
       id="path357"
       inkscape:connector-curvature="0"
       inkscape:path-effect="#path-effect359"
       inkscape:original-d="M 15.119047,227.45238 67.27976,48.291667 l 34.77678,91.012613 34.01489,-90.256661 47.625,180.672621" />
    <path
       style="fill:#000000;stroke:none;stroke-width:0.26458332px;stroke-linecap:butt;stroke-linejoin:miter;stroke-opacity:1"
       d="m 15.119047,227.45238 c -0.158446,-0.24354 5.584037,-4.08252 11.996188,-13.53536 3.788222,-5.60144 7.347297,-12.08246 11.237542,-20.67511 0,0 10e-7,0 2e-6,0 6.555461,-14.48623 12.165551,-30.68568 17.446937,-50.52295 0.31493,-1.1829 0.624281,-2.36186 0.928291,-3.53595 5.431112,-20.9938 8.660336,-38.75351 10.511839,-54.688605 1.01615,-8.755775 1.430937,-15.343826 1.423379,-21.43991 -0.0044,-3.337214 -0.142629,-5.892726 -0.383577,-8.180978 0,0 0,-3e-6 0,-3e-6 -0.426273,-4.017805 -1.139413,-6.127052 -0.983722,-6.186178 0.16029,-0.06087 1.192802,1.965395 1.919828,6.053168 0,0 10e-7,3e-6 10e-7,3e-6 0.407939,2.284455 0.698839,4.927606 0.849769,8.28133 0.275293,6.105105 0.06034,12.912133 -0.766148,21.688947 -1.504468,15.998826 -4.590979,34.102166 -10.011408,55.133246 -0.304002,1.18056 -0.614092,2.36605 -0.930538,3.55561 -5.289856,19.88517 -11.15756,36.32218 -18.017981,50.76368 0,0 -3e-6,0 -3e-6,0 -4.071112,8.57372 -7.911103,15.13087 -11.952604,20.64917 -6.976055,9.55197 -13.036537,12.99534 -13.267795,12.63989 z"
       id="path373"
       inkscape:connector-curvature="0"
       inkscape:path-effect="#path-effect375"
       inkscape:original-d="M 15.119047,227.45238 C 49.871907,204.84224 77.344401,75.14723 67.295929,48.687344" />
    <path
       style="fill:#000000;stroke:none;stroke-width:0.26458332px;stroke-linecap:butt;stroke-linejoin:miter;stroke-opacity:1"
       d="m 69.215753,54.740502 c 0.39208,-0.04163 1.237209,5.272944 2.289657,13.920018 0.932826,7.664246 2.378544,21.555684 5.014737,33.3591 0.586841,2.62755 1.227739,5.16912 1.932793,7.64306 2.162792,7.54789 4.792905,13.46288 8.52377,18.21761 6.925041,8.88644 15.19458,10.53695 15.07876,10.95462 0.11558,-0.4168 -8.324375,0.24975 -16.720973,-9.61472 -4.134294,-4.88573 -7.133939,-11.10701 -9.388155,-18.83261 -0.740038,-2.52297 -1.404878,-5.11701 -2.001956,-7.79297 C 71.17705,90.192094 70.169848,76.895391 69.63794,68.835631 69.064677,60.149234 68.883338,54.775801 69.215753,54.740502 Z"
       id="path377"
       inkscape:connector-curvature="0"
       inkscape:path-effect="#path-effect379"
       inkscape:original-d="m 69.215753,54.740502 c 4.544679,42.798285 5.799119,76.595918 32.839707,84.094408" />
    <path
       style="fill:#000000;stroke:none;stroke-width:0.26458332px;stroke-linecap:butt;stroke-linejoin:miter;stroke-opacity:1"
       d="m 102.0506,140.21952 c 0.0292,-0.28927 4.19459,0.28789 9.66589,-2.85534 2.91079,-1.67237 5.74576,-4.1101 8.73085,-7.65554 5.56633,-6.62353 9.95795,-14.94301 13.74318,-25.73444 0.24175,-0.69299 0.4789,-1.39167 0.71097,-2.09579 3.4046,-10.329626 5.03673,-19.757762 5.41131,-28.292582 0,0 0,-3e-6 0,-3e-6 0.23074,-5.305051 -0.062,-9.623843 -0.74834,-13.432866 -1.26314,-6.950057 -3.76222,-10.550468 -3.51245,-10.727528 0.20611,-0.146105 3.32364,3.06258 5.10174,10.389669 0.94806,3.881883 1.46455,8.397163 1.38956,13.834153 0,0 0,4e-6 0,4e-6 -0.1172,8.750223 -1.64708,18.515411 -5.12783,29.058453 -0.23761,0.7197 -0.48112,1.43334 -0.73005,2.1407 -3.84358,10.98051 -8.63406,19.59924 -14.62365,26.26426 -3.21839,3.58803 -6.41792,6.049 -9.61458,7.62545 -6.47238,3.19445 -10.39202,1.43603 -10.3966,1.4814 z"
       id="path381"
       inkscape:connector-curvature="0"
       inkscape:path-effect="#path-effect383"
       inkscape:original-d="m 102.0506,140.21952 c 27.54218,2.78008 50.15701,-68.003966 34.00142,-90.794081" />
    <path
       style="fill:#000000;stroke:none;stroke-width:0.26458332px;stroke-linecap:butt;stroke-linejoin:miter;stroke-opacity:1"
       d="m 136.05202,49.425439 c 0.31616,0.161938 -4.96868,8.893124 -7.60769,24.499743 0,10e-7 0,5e-6 0,5e-6 -1.08922,6.428781 -1.51153,13.983664 -0.48569,22.245154 0.83419,6.734419 2.58658,13.695059 5.24894,20.927929 2.47764,6.72945 5.61215,13.36725 9.26344,20.21276 0,1e-5 0.0265,0.0497 0.0265,0.0497 7.94166,14.87939 16.68372,28.20565 23.39649,40.18627 7.13306,12.7151 11.33199,22.28241 14.07446,30.63718 2.54812,7.76273 3.14749,12.42418 2.972,12.46467 -0.23815,0.055 -1.34626,-4.48166 -4.23181,-12.01717 -3.16217,-8.25792 -7.45149,-17.30616 -14.80321,-29.94888 -6.86579,-11.79272 -15.71154,-25.04003 -23.74192,-40.07594 0,1e-5 -0.0268,-0.0502 -0.0268,-0.0502 -3.69234,-6.91647 -6.85671,-13.68856 -9.34169,-20.57936 -2.67338,-7.41147 -4.38994,-14.59169 -5.14527,-21.538707 -0.92518,-8.531724 -0.3169,-16.293298 0.99384,-22.846296 0,0 0,-5e-6 0,-5e-6 3.23376,-16.139855 9.62249,-24.057185 9.4084,-24.166843 z"
       id="path385"
       inkscape:connector-curvature="0"
       inkscape:path-effect="#path-effect387"
       inkscape:original-d="M 136.05202,49.425439 C 101.37827,117.12003 169.10124,160.67879 182.94047,220.64881" />
    <path
       style="fill:#000000;stroke:none;stroke-width:0.26458332px;stroke-linecap:butt;stroke-linejoin:miter;stroke-opacity:1"
       d="m 9.827381,8.2261905 c 0.1449202,-0.00467 -0.093608,2.2205815 1.100386,5.7062865 0.580232,1.721209 1.758878,3.632014 3.780872,5.301555 2.537109,2.10024 5.642257,3.523624 9.828763,4.958467 5.643268,1.918111 11.583883,3.184694 19.108978,4.434115 9.428174,1.561619 18.500113,2.607337 29.937907,3.891665 11.25439,1.263101 23.383778,2.531416 36.044313,4.019882 2.17869,0.256099 4.37739,0.518658 6.58613,0.78882 10.23643,1.252074 19.85555,2.567128 29.28571,4.147265 10.82696,1.811516 20.2927,3.694247 29.46413,6.610642 0,0 0,3e-6 0,3e-6 7.13701,2.259475 13.24809,4.962037 18.39139,8.834051 4.10282,3.086718 7.05485,6.796304 8.74129,10.7161 1.78337,4.191449 2.11777,8.496621 2.06361,11.741378 -0.12598,7.822788 -1.70155,11.987549 -1.56562,12.004541 -0.20838,-0.02605 0.62922,-4.384304 0.39558,-11.996367 -0.0987,-3.145785 -0.5702,-7.27404 -2.35354,-11.100025 -1.65729,-3.595939 -4.50923,-6.962741 -8.43229,-9.808523 -4.96873,-3.602461 -10.88041,-6.068307 -17.9167,-8.216497 -1e-5,0 -1e-5,-2e-6 -1e-5,-3e-6 -9.06194,-2.753801 -18.38931,-4.508489 -29.20368,-6.2585 -9.40551,-1.519652 -18.95948,-2.796072 -29.19114,-4.047643 -2.20379,-0.269576 -4.39983,-0.533286 -6.57497,-0.791852 C 96.679998,37.659424 84.555937,36.329089 73.298753,34.963922 61.945611,33.587708 52.680965,32.390406 43.290547,30.660652 35.757979,29.276069 29.688329,27.8251 23.998024,25.706878 19.776418,24.147123 16.525735,22.476347 13.923234,20.144765 11.802175,18.241567 10.638859,16.068062 10.132538,14.171254 9.122755,10.313847 10.019217,8.2200022 9.827381,8.2261905 Z"
       id="path405"
       inkscape:connector-curvature="0"
       inkscape:path-effect="#path-effect407;#path-effect409"
       inkscape:original-d="m 9.827381,8.2261905 c 0.25463,7.8088615 0.506614,15.6203695 0.755952,23.4345225 66.022487,3.777118 132.042327,7.556879 198.059517,11.339288 -2.01322,16.124338 -4.0291,32.251322 -6.04761,48.380951" />
    <path
       style="fill:#000000;stroke:none;stroke-width:0.26458332px;stroke-linecap:butt;stroke-linejoin:miter;stroke-opacity:1"
       d="m 18.142857,257.69047 c -0.05521,-0.90887 71.992455,-5.31572 161.110183,-10.26707 -0.41397,-0.81225 -0.90016,-1.60148 -1.45476,-2.35536 -0.74953,-1.01885 -1.61927,-1.9667 -2.59588,-2.81626 -1.52588,-1.80233 -3.39882,-3.31376 -5.42876,-4.54682 -4.8284,-2.94619 -10.52447,-4.34378 -16.10201,-5.14877 -7.18473,-1.02128 -14.45992,-0.98671 -21.40393,-0.59241 -8.47901,0.48453 -16.76634,1.58536 -24.50507,2.8653 -18.776061,3.10599 -36.771756,7.72641 -49.766938,11.23446 -7.958443,2.14867 -15.720803,4.36881 -21.055897,5.89444 -10.05374,2.87497 -15.701451,4.45954 -15.773135,4.22059 -0.0464,-0.15466 5.483567,-2.1102 15.439448,-5.31821 5.449069,-1.75583 12.83438,-4.07076 20.93304,-6.42533 13.007758,-3.78234 30.886517,-8.62551 49.830082,-11.92327 7.7838,-1.35525 16.1456,-2.52204 24.74805,-3.06026 7.03726,-0.44281 14.47695,-0.50183 21.91569,0.52584 5.77216,0.78525 11.79793,2.28396 17.10659,5.46946 2.24283,1.35146 4.33242,3.04396 6.07845,5.09235 0.87686,1.3318 1.62842,2.77094 2.24091,4.28964 0.45323,1.12381 0.82819,2.28596 1.12136,3.47399 -90.060566,5.93477 -162.3823,10.2951 -162.437423,9.38769 z"
       id="path1358"
       inkscape:connector-curvature="0"
       inkscape:path-effect="#path-effect1360"
       inkscape:original-d="M 18.142857,257.69047 179.91666,247.86309 C 166.07214,208.70143 53.742554,246.40581 21.166667,256.17857" />
    <path
       style="fill:#000000;stroke:none;stroke-width:0.26458332px;stroke-linecap:butt;stroke-linejoin:miter;stroke-opacity:1"
       d="m 180.58028,248.30278 c 0.0479,0.0484 -4.57132,6.33777 -15.86331,12.63444 -5.28341,2.9459 -11.67752,5.67762 -19.38205,7.83321 0,0 0,0 0,0 -12.85583,3.59455 -27.26284,5.14423 -43.86084,4.72996 -2.6e-4,0 -0.32841,-0.008 -0.32867,-0.008 -16.644036,-0.43516 -32.152329,-2.7571 -44.943371,-5.31929 -23.349247,-4.67545 -38.143601,-10.2008 -38.059185,-10.48218 0.134979,-0.44993 15.231074,4.10988 38.476251,8.28685 12.752105,2.29053 28.160258,4.44501 44.595055,4.8697 -2.8e-4,0 0.32518,0.008 0.32491,0.008 16.43202,0.39718 30.51883,-0.96986 43.2058,-4.27043 0,0 0,0 0,0 7.59095,-1.97339 13.88708,-4.46221 19.16459,-7.15879 11.10018,-5.67109 16.44112,-11.35544 16.67082,-11.1231 z"
       id="path1362"
       inkscape:connector-curvature="0"
       inkscape:path-effect="#path-effect1364"
       inkscape:original-d="M 180.58028,248.30278 C 142.03318,286.41167 61.53854,270.7092 18.142857,257.69047" />
    <path
       style="fill:#000000;stroke:none;stroke-width:0.26458332px;stroke-linecap:butt;stroke-linejoin:miter;stroke-opacity:1"
       d="m 71.059523,247.86309 c -0.07321,-0.33027 4.532351,-1.79828 12.185719,-3.2549 8.011477,-1.52478 17.956948,-2.77728 30.203088,-3.41217 11.64011,-0.60346 22.89546,-0.5142 30.44433,-0.30657 7.78649,0.21416 12.58949,0.5721 12.58949,0.92602 0,0.37554 -4.80524,0.68136 -12.58315,0.94831 -6.64843,0.22818 -19.64752,0.52676 -30.31413,1.07563 -12.4676,0.64155 -21.721344,1.55256 -30.047054,2.61176 -7.654177,0.97378 -12.393438,1.7947 -12.478293,1.41192 z"
       id="path1366"
       inkscape:connector-curvature="0"
       inkscape:path-effect="#path-effect1368"
       inkscape:original-d="m 71.059523,247.86309 c 27.222609,-6.03471 56.330207,-6.04762 85.422617,-6.04762" />
    <path
       style="fill:#000000;stroke:none;stroke-width:0.26458332px;stroke-linecap:butt;stroke-linejoin:miter;stroke-opacity:1"
       d="m 86.934523,262.22619 c 0.03089,-0.31863 3.151896,-0.34475 8.400867,-0.99511 3.552067,-0.44501 6.46762,-0.87805 11.26574,-1.60494 0,0 0,0 0,0 4.57951,-0.69433 11.23843,-1.73888 16.90071,-2.48269 2.74927,-0.36115 5.39664,-0.67301 7.9923,-0.92772 3.75507,-0.36973 7.09795,-0.60041 10.4185,-0.54608 2.55421,0.0114 4.87413,0.13007 7.07316,1.09873 0.74355,0.29343 1.46423,0.84931 1.91899,1.68444 0.40101,0.9553 0.27171,1.86999 -0.044,2.53892 -0.52191,1.18263 -1.34801,2.06795 -1.9966,2.69393 -2.31784,2.27714 -4.04004,2.9973 -4.11936,2.89937 -0.15139,-0.1869 1.25158,-1.39532 3.13799,-3.78371 0.52532,-0.67631 1.17789,-1.52809 1.44111,-2.39703 0.10824,-0.43914 0.17664,-0.91751 -0.0212,-1.12571 -0.12537,-0.29097 -0.54982,-0.48321 -1.06852,-0.71965 -1.79057,-0.70524 -3.74246,-0.61932 -6.31404,-0.59101 -3.22063,0.0764 -6.41069,0.39158 -10.15374,0.81686 -2.57646,0.29365 -5.17389,0.62089 -7.91998,0.98179 -6.61183,0.86895 -11.32232,1.54865 -16.93704,2.18636 0,0 -1e-5,0 -1e-5,0 -4.53765,0.51578 -8.119532,0.8306 -11.437276,0.95803 -5.370806,0.21169 -8.578781,-0.26043 -8.537641,-0.68478 z"
       id="path1382"
       inkscape:connector-curvature="0"
       inkscape:path-effect="#path-effect1384"
       inkscape:original-d="m 86.934523,262.22619 c 17.302827,1.67747 82.615817,-15.7329 57.810347,4.35885" />
    <path
       style="fill:#00ffff;stroke-width:2.85714293"
       d="M 151.21729,462.29838 C 139.50647,436.89142 129.38428,406.96086 105.20181,326.23397 94.374897,290.09111 81.655443,249.61811 76.936364,236.29396 c -4.719079,-13.32415 -8.127169,-24.67871 -7.573533,-25.23234 2.020896,-2.0209 29.678792,41.66052 42.197499,66.64449 7.07454,14.1189 17.63479,38.44408 23.4672,54.05597 10.76704,28.82063 32.42534,109.01197 33.38669,123.61653 0.66411,10.08898 -3.01574,26.56965 -5.93255,26.56965 -1.21394,0 -6.28291,-8.84245 -11.26438,-19.64988 z"
       id="path1402"
       inkscape:connector-curvature="0"
       transform="scale(0.26458333)" />
    <path
       style="fill:#00ffff;stroke-width:2.85714293"
       d="M 248.27461,815.6262 C 236.81264,774.71926 224.62831,714.7784 214.42258,649.09111 l -7.99038,-51.42857 8.1039,-28.57143 c 21.16456,-74.61862 42.25961,-180.03301 46.71261,-233.42822 1.03582,-12.42044 2.79807,-21.5516 3.9161,-20.29148 1.11804,1.26012 3.53813,13.86256 5.37797,28.00542 7.73766,59.47916 25.75003,112.59735 48.13566,141.95133 12.43257,16.30266 34.18149,31.88654 51.46442,36.87611 6.67857,1.9281 12.14285,4.82154 12.14285,6.42987 0,7.76444 -68.52364,185.32429 -85.03764,220.35123 -10.34482,21.94183 -22.90111,52.50677 -27.90287,67.92206 -5.00176,15.41531 -9.75568,28.6894 -10.56427,29.498 -0.80859,0.8086 -5.53644,-13.04206 -10.50632,-30.77923 z"
       id="path1404"
       inkscape:connector-curvature="0"
       transform="scale(0.26458333)" />
    <path
       style="fill:#00ffff;stroke-width:2.85714293"
       d="M 498.19276,828.37683 C 495.36768,819.34111 475.7064,765.66254 454.50103,709.09111 411.82118,595.23035 390.29559,535.71509 391.49562,534.88994 c 0.43455,-0.29881 8.1597,-2.13421 17.16699,-4.07868 27.52009,-5.94096 63.29592,-37.93681 81.25882,-72.67323 l 4.3106,-8.33577 9.25674,22.50157 c 5.0912,12.37586 11.81606,27.44663 14.94412,33.49059 5.56937,10.76098 5.58387,11.53177 0.69892,37.14286 -12.88411,67.54959 -15.33264,99.80959 -15.37582,202.58015 -0.0229,54.60588 -0.12834,99.28446 -0.23422,99.28571 -0.10589,10e-4 -2.50394,-7.3906 -5.32902,-16.42631 z"
       id="path1406"
       inkscape:connector-curvature="0"
       transform="scale(0.26458333)" />
    <path
       style="fill:#00ffff;stroke-width:2.85714293"
       d="m 583.98319,437.7558 -11.15461,-42.10482 9.43645,-23.27993 c 16.43859,-40.55441 64.93104,-135.03624 67.82271,-132.14458 1.22343,1.22344 -41.33417,188.47437 -51.61582,227.10654 l -3.33413,12.52761 z"
       id="path1408"
       inkscape:connector-curvature="0"
       transform="scale(0.26458333)" />
    <path
       style="fill:#00ffff;stroke-width:2.85714293"
       d="m 491.32543,398.37683 c -10.27638,-46.73672 -10.89108,-88.93964 -1.92472,-132.14286 4.27409,-20.59411 21.39243,-70 24.25386,-70 0.88497,0 4.65524,11.6758 8.37839,25.94622 11.61067,44.50245 5.84161,105.50617 -15.98726,169.05378 -4.18339,12.17857 -8.46475,22.14286 -9.51413,22.14286 -1.04938,0 -3.39215,-6.75 -5.20614,-15 z"
       id="path1410"
       inkscape:connector-curvature="0"
       transform="scale(0.26458333)" />
    <path
       style="fill:#00ffff;stroke-width:2.85714293"
       d="m 172.89701,565.51969 c -8.49164,-28.59269 -12.76178,-47.7563 -11.71164,-52.55965 l 1.65276,-7.55965 9.56291,10.585 c 8.6335,9.55625 10.13632,13.94584 15.46291,45.16547 4.27092,25.03227 5.12377,36.62212 3.08874,41.97465 -1.54619,4.0668 -3.23427,7.39418 -3.75128,7.39418 -0.51701,0 -6.95399,-20.25 -14.3044,-45 z"
       id="path1412"
       inkscape:connector-curvature="0"
       transform="scale(0.26458333)" />
    <path
       style="fill:#00ffff;stroke-width:2.85714293"
       d="m 228.58911,765.60623 c -4.81888,-18.51189 -13.48833,-60.01512 -19.26545,-92.2294 -9.46011,-52.75134 -12.75223,-67.61446 -12.75223,-57.57326 0,13.68772 -46.84868,124.63017 -67.5334,159.926 -14.16565,24.17186 -9.38773,9.38994 10.08174,-31.1908 21.31021,-44.41746 46.02309,-107.77457 46.02309,-117.99068 0,-3.47278 1.11024,-7.53555 2.46719,-9.0284 1.35696,-1.49286 3.92687,-7.08038 5.71092,-12.41666 2.61838,-7.83194 2.08956,-16.36943 -2.74308,-44.28572 -3.29274,-19.02085 -6.61416,-38.44048 -7.38093,-43.15477 -0.76677,-4.71428 -3.27529,-17.57143 -5.57449,-28.57143 -2.29919,-11 -5.42629,-27.71428 -6.9491,-37.14285 -8.10603,-50.18904 -32.98559,-127.67075 -55.87766,-174.01824 -13.32715,-26.98225 -15.059432,-36.22493 -2.90093,-15.47802 20.55457,35.07373 46.25204,102.69172 57.35731,150.92483 2.71356,11.78571 5.69229,23.35714 6.61939,25.71428 0.92711,2.35715 2.02229,6.85715 2.43375,10 0.41146,3.14286 3.93644,23.07143 7.8333,44.28572 3.89686,21.21428 8.67871,48.666 10.62632,61.00377 2.04465,12.95251 4.43345,20.80074 5.65266,18.57143 3.37486,-6.17086 27.39507,-103.34623 35.24888,-142.60165 13.44658,-67.2096 19.34859,-114.46865 20.95368,-167.78194 0.86498,-28.73032 2.09541,-51.71422 2.7343,-51.07533 0.6389,0.63889 4.97388,30.22329 9.63331,65.74311 17.09541,130.32207 31.25641,178.2819 63.43502,214.83873 6.16319,7.00174 9.92996,12.73045 8.3706,12.73045 -6.29128,0 -30.04365,-30.91845 -40.42062,-52.61549 -6.07606,-12.70434 -14.32665,-36.30751 -18.33464,-52.4515 -6.45481,-25.99966 -9.73894,-46.36894 -17.83956,-110.6473 -2.15803,-17.12388 -2.16291,-17.10807 -4.41141,14.28572 -4.9325,68.86816 -21.16538,158.69602 -43.72599,241.96643 -7.10502,26.22437 -12.91822,51.62143 -12.91822,56.43785 0,11.92083 21.44739,137.74078 28.86549,169.33778 8.8474,37.68505 4.73731,33.50411 -5.41924,-5.51266 z"
       id="path1414"
       inkscape:connector-curvature="0"
       transform="scale(0.26458333)" />
    <path
       style="fill:#00ffff;stroke-width:2.85714293"
       d="m 211.27797,676.23397 c -10.16317,-54.97594 -12.12612,-63.02336 -14.94752,-61.27963 -1.43889,0.88929 -2.61616,3.48332 -2.61616,5.76455 0,5.88957 -20.5268,58.7978 -22.17307,57.15154 -0.74987,-0.74989 1.83688,-10.74626 5.74834,-22.21423 21.47037,-62.94865 20.57478,-57.55824 15.09869,-90.87636 -11.53826,-70.20206 -27.90299,-150.28708 -37.35914,-182.82647 -11.38814,-39.18753 -11.48123,-50.45444 -0.11972,-14.48888 12.56324,39.76967 23.66743,88.08192 33.36229,145.15299 8.87497,52.24458 11.80551,63.92025 15.19339,60.53237 5.45015,-5.45014 39.16736,-156.9223 48.60278,-218.34445 2.17256,-14.14286 4.07465,-21.16975 4.22685,-15.61532 0.66679,24.33376 -18.50618,124.00815 -39.97511,207.81841 -6.1472,23.99741 -11.17673,49.5368 -11.17673,56.7542 0,7.21741 3.27158,32.45374 7.27018,56.08077 3.9986,23.627 6.86453,45.01617 6.36873,47.53148 -0.4958,2.51532 -3.87251,-11.49811 -7.5038,-31.14097 z"
       id="path1416"
       inkscape:connector-curvature="0"
       transform="scale(0.26458333)" />
    <path
       style="fill:#00ffff;stroke-width:2.85714293"
       d=""
       id="path1418"
       inkscape:connector-curvature="0"
       transform="scale(0.26458333)" />
    <path
       style="fill:#00ffff;stroke-width:2.85714293"
       d=""
       id="path1420"
       inkscape:connector-curvature="0"
       transform="scale(0.26458333)" />
    <path
       style="fill:#00ffff;stroke-width:2.85714293"
       d=""
       id="path1422"
       inkscape:connector-curvature="0"
       transform="scale(0.26458333)" />
    <path
       style="fill:#00ffff;stroke-width:2.85714293"
       d=""
       id="path1424"
       inkscape:connector-curvature="0"
       transform="scale(0.26458333)" />
    <path
       style="fill:#00ffff;stroke-width:2.85714293"
       d="m 63.373251,846.52237 c 2.913111,-8.24477 65.496759,-220.20364 79.184629,-268.1832 6.61841,-23.19928 12.80042,-41.41717 13.7378,-40.4842 0.93738,0.93297 7.60227,20.76031 14.81088,44.06076 l 13.10655,42.36444 -12.05602,33.83405 c -21.7575,61.06028 -44.19997,108.6311 -68.53048,145.26261 -15.10363,22.73968 -43.978873,53.68963 -40.253359,43.14554 z"
       id="path1426"
       inkscape:connector-curvature="0"
       transform="scale(0.26458333)" />
    <path
       style="fill:#00ffff;stroke-width:2.85714293"
       d="m 191.11419,506.68043 c -5.34972,-30.1027 -9.75373,-56.66074 -9.78669,-59.01789 -0.0621,-4.44585 69.37837,-249.08627 71.29975,-251.19047 3.50552,-3.8391 4.61987,6.76488 4.53976,43.19984 -0.10478,47.6529 -3.53961,82.11135 -14.97688,150.24915 -8.22629,49.0083 -35.80194,168.06317 -39.44912,170.31723 -1.04502,0.64588 -6.27709,-23.45518 -11.62682,-53.55786 z"
       id="path1428"
       inkscape:connector-curvature="0"
       transform="scale(0.26458333)" />
    <path
       style="fill:#00ffff;stroke-width:2.85714293"
       d="M 362.1308,510.96826 C 321.65717,485.08605 298.59237,437.67595 284.07331,350.51969 277.7953,312.83352 267.28078,230.28653 268.59151,228.9758 c 0.96238,-0.96238 108.04879,276.9328 110.33227,286.31837 1.39013,5.71369 -2.7687,4.64237 -16.79298,-4.32591 z"
       id="path1430"
       inkscape:connector-curvature="0"
       transform="scale(0.26458333)" />
    <path
       style="fill:#00ffff;stroke-width:2.85714293"
       d="m 389.35791,522.66254 c 1.0831,-2.75 19.35709,-51.28571 40.60887,-107.85714 46.79572,-124.56842 44.1575,-118.49179 42.17547,-97.14286 -1.98552,21.38667 2.69388,63.28794 10.57865,94.7255 l 6.00497,23.94255 -13.80299,22.83274 c -16.60379,27.46579 -40.13756,51.74488 -59.51729,61.4022 -17.26313,8.60258 -28.9815,9.54599 -26.04768,2.09701 z"
       id="path1432"
       inkscape:connector-curvature="0"
       transform="scale(0.26458333)" />
    <path
       style="fill:#00ffff;stroke-width:2.85714293"
       d="M 554.77611,545.10441 537.42,514.29754 542.81124,493.1229 c 2.96518,-11.64605 10.09842,-36.41709 15.85165,-55.04674 l 10.46041,-33.8721 11.65665,45.30067 11.65666,45.30067 -9.19105,39.59179 c -5.05508,21.77549 -9.62357,40.02432 -10.1522,40.55295 -0.52863,0.52863 -8.7714,-12.90195 -18.31725,-29.84573 z"
       id="path1434"
       inkscape:connector-curvature="0"
       transform="scale(0.26458333)" />
    <path
       style="fill:#00ffff;stroke-width:2.85714293"
       d="m 512.25093,764.8054 c 0.78803,-44.78571 2.72688,-94.92857 4.30854,-111.42857 3.06636,-31.98833 13.58116,-107.3356 15.90938,-114.00381 C 533.92666,535.19771 568,590.21774 568,596.74706 c 0,4.22747 -53.96705,242.3542 -55.89411,246.62977 -0.70827,1.57143 -0.643,-33.78572 0.14504,-78.57143 z"
       id="path1436"
       inkscape:connector-curvature="0"
       transform="scale(0.26458333)" />
    <path
       style="fill:#00ffff;stroke-width:2.85714293"
       d="m 634.02383,681.0172 c -5.30628,-9.7022 -19.76098,-34.54453 -32.12153,-55.20516 -12.36055,-20.66063 -22.45474,-39.94635 -22.43153,-42.85714 0.0232,-2.9108 3.68904,-20.72093 8.1463,-39.57807 l 8.10409,-34.28572 4.47645,15.71429 c 10.57953,37.13871 45.22093,172.10527 44.38756,172.93863 -0.50244,0.50245 -5.25504,-7.02462 -10.56134,-16.72683 z"
       id="path1438"
       inkscape:connector-curvature="0"
       transform="scale(0.26458333)" />
    <path
       style="fill:#00ffff;stroke-width:2.85714293"
       d="m 513.95796,464.72071 -11.89258,-28.65612 9.92435,-24.91531 c 11.91211,-29.90561 20.14472,-60.5844 24.85969,-92.63951 1.91766,-13.03741 3.91993,-22.41866 4.44948,-20.84723 0.52955,1.57143 5.92485,22.1813 11.98955,45.79971 l 11.02673,42.94257 -9.44275,24.80309 c -5.19352,13.64171 -13.02488,37.71041 -17.40304,53.48601 -4.37816,15.7756 -8.78347,28.68291 -9.78957,28.68291 -1.00611,0 -7.18094,-12.89526 -13.72186,-28.65612 z"
       id="path1440"
       inkscape:connector-curvature="0"
       transform="scale(0.26458333)" />
    <path
       style="fill:#00ffff;stroke-width:2.85714293"
       d=""
       id="path1442"
       inkscape:connector-curvature="0"
       transform="scale(0.26458333)" />
    <path
       style="fill:#00ffff;stroke-width:2.85714293"
       d=""
       id="path1444"
       inkscape:connector-curvature="0"
       transform="scale(0.26458333)" />
    <path
       style="fill:#00ffff;stroke-width:2.85714293"
       d="m 154.33091,485.74074 c -6.22721,-10.72872 -12.2203,-22.41829 -13.31798,-25.97683 -1.09767,-3.55853 -2.9839,-5.85936 -4.19161,-5.11295 -3.91541,2.41986 -76.30419,-237.39695 -73.866129,-244.71113 1.350142,-4.05043 23.043212,60.59742 43.337679,129.15128 24.22068,81.81642 37.58082,117.65264 57.86646,155.21652 2.39801,4.44051 3.71512,8.71857 2.92691,9.50677 -0.78821,0.7882 -6.52811,-7.34494 -12.75533,-18.07366 z"
       id="path1446"
       inkscape:connector-curvature="0"
       transform="scale(0.26458333)" />
    <path
       style="fill:#00ffff;stroke-width:2.85714293"
       d="m 152.74314,501.55971 c -3.23469,-12.08433 -2.21048,-15.6319 2.55059,-8.83452 2.9847,4.26126 3.58913,7.84843 1.84699,10.96147 -2.20817,3.94577 -2.85591,3.63248 -4.39758,-2.12695 z"
       id="path1448"
       inkscape:connector-curvature="0"
       transform="scale(0.26458333)" />
    <path
       style="fill:#00ffff;stroke-width:2.85714293"
       d="m 177.13004,575.51969 c -10.52752,-34.56517 -14.72182,-52.34656 -14.65836,-62.14286 0.0456,-7.033 0.17439,-6.99302 8.37637,2.59923 5.47143,6.39887 9.82413,16.31085 12.68368,28.88331 5.88842,25.88941 8.9176,59.94603 5.33192,59.94603 -1.54774,0 -6.82786,-13.17857 -11.73361,-29.28571 z"
       id="path1450"
       inkscape:connector-curvature="0"
       transform="scale(0.26458333)" />
    <path
       style="fill:#00ffff;stroke-width:2.85714293"
       d="m 177.15299,575.51969 c -12.23427,-40.27261 -15.52333,-54.54605 -14.39979,-62.49024 0.92194,-6.51868 1.28848,-6.36753 8.99857,3.71065 5.75435,7.52175 9.59879,18.07255 13.53389,37.14285 5.78669,28.04346 7.20991,50.92245 3.16771,50.92245 -1.32208,0 -6.40725,-13.17857 -11.30038,-29.28571 z"
       id="path1452"
       inkscape:connector-curvature="0"
       transform="scale(0.26458333)" />
    <path
       style="fill:#00ffff;stroke-width:2.85714293"
       d="m 211.15052,675.80669 c -10.69591,-56.68643 -12.0819,-62.54464 -14.45103,-61.08043 -1.23593,0.76383 -3.00652,5.18571 -3.93465,9.8264 -2.44509,12.22543 -19.35629,55.18508 -21.05506,53.48634 -0.79183,-0.79186 4.55682,-19.71534 11.88591,-42.05226 l 13.3256,-40.61253 -4.70261,-30.2844 c -8.88912,-57.24523 -27.31548,-147.4757 -37.32392,-182.76832 -11.26748,-39.73238 -11.25684,-50.53752 0.0146,-14.857 11.86178,37.54916 23.52048,87.10884 31.63673,134.48377 9.9876,58.29806 12.87776,71.42857 15.72214,71.42857 4.69507,0 37.91299,-144.7916 48.50571,-211.42857 2.87266,-18.07143 5.35227,-28.67011 5.51024,-23.55262 0.72627,23.52763 -17.80033,121.98431 -38.35719,203.84321 -7.03129,27.99912 -12.78416,55.49952 -12.78416,61.112 0,5.61249 3.30649,30.78061 7.34775,55.92915 8.84352,55.03274 7.96642,65.8496 -1.34009,16.52669 z"
       id="path1454"
       inkscape:connector-curvature="0"
       transform="scale(0.26458333)" />
    <path
       style="fill:#00ffff;stroke-width:2.85714293"
       d="m 256.57143,841.13429 c 0,-1.07626 -3.24966,-13.17072 -7.22146,-26.87655 -9.34576,-32.25031 -24.56902,-106.75365 -34.19204,-167.33751 l -7.60598,-47.8852 13.02786,-49.25767 c 15.89051,-60.08117 34.15108,-150.0807 39.18067,-193.10688 2.0487,-17.5258 4.54586,-31.86508 5.54924,-31.86508 1.00339,0 3.36683,11.0262 5.25209,24.50266 8.74838,62.53627 31.52057,121.2804 56.82281,146.58264 8.56975,8.56975 21.98981,17.78337 34.16322,23.45497 l 20.04916,9.3409 -6.45633,18.7737 c -12.35593,35.92854 -60.77994,159.09904 -82.07859,208.7737 -11.79097,27.5 -23.69727,57.07143 -26.45845,65.71429 -4.44395,13.91017 -10.0322,24.5974 -10.0322,19.18603 z"
       id="path1456"
       inkscape:connector-curvature="0"
       transform="scale(0.26458333)" />
    <path
       style="fill:#00ffff;stroke-width:2.85714293"
       d="m 252.63608,827.01634 c -12.80069,-44.03283 -28.51661,-120.83051 -40.3635,-197.241 l -4.76669,-30.74434 14.38323,-56.39851 c 17.33707,-67.98097 30.02449,-130.33085 36.74291,-180.5659 2.74081,-20.49365 5.71402,-37.26119 6.60715,-37.26119 0.89312,0 3.75006,13.17857 6.34875,29.28571 10.33964,64.08682 31.47426,117.05536 56.55692,141.74548 8.10775,7.98087 22.97537,18.29705 33.99109,23.58536 l 19.57995,9.39974 -8.58574,24.42042 c -14.5028,41.25036 -56.24887,147.53338 -78.04824,198.70615 -11.38016,26.71428 -23.62286,56.92857 -27.20601,67.14285 -3.58314,10.21429 -7.46388,19.66426 -8.62386,20.99995 -1.15998,1.33565 -4.13716,-4.54795 -6.61596,-13.07472 z"
       id="path1458"
       inkscape:connector-curvature="0"
       transform="scale(0.26458333)" />
    <path
       style="fill:#00ffff;stroke-width:2.85714293"
       d="M 463.97121,732.01783 C 443.68395,676.97956 419.54504,611.42256 410.3292,586.33559 c -9.21584,-25.08697 -16.22966,-46.98449 -15.58626,-48.66117 0.64341,-1.67667 7.77721,-4.74192 15.85291,-6.81166 25.10238,-6.43355 56.03108,-32.66679 75.15266,-63.74333 l 8.59166,-13.96321 14.01036,32.25316 14.01036,32.25316 -5.74144,32.85715 c -10.67406,61.08558 -12.00601,78.35783 -13.88613,180.06956 l -1.87618,101.49815 z"
       id="path1460"
       inkscape:connector-curvature="0"
       transform="scale(0.26458333)" />
    <path
       style="fill:#00ffff;stroke-width:2.85714293"
       d="m 448.17926,689.80056 c -28.97283,-78.66321 -52.75854,-145.55354 -52.85714,-148.64519 -0.13201,-4.13956 2.83303,-6.53199 11.24931,-9.0768 27.7444,-8.389 53.28387,-28.31458 73.42374,-57.28431 l 14.76415,-21.23714 13.85215,32.05271 13.85214,32.05271 -7.07744,42.85715 c -10.31191,62.44338 -10.90559,70.61244 -12.80163,176.15245 l -1.7274,96.15243 z"
       id="path1462"
       inkscape:connector-curvature="0"
       transform="scale(0.26458333)" />
    <path
       style="fill:#00ffff;stroke-width:2.85714293"
       d="m 505.75598,757.66254 c -0.71599,-94.15494 4.48941,-159.97177 17.73585,-224.25131 3.5348,-17.15294 3.48996,-17.40829 -6.91188,-39.36396 -5.75837,-12.15446 -12.79066,-28.20616 -15.62731,-35.67044 -2.83665,-7.46429 -5.44298,-13.57143 -5.79185,-13.57143 -0.34886,0 -5.56836,8.03571 -11.59888,17.85714 -11.11302,18.09889 -39.92995,50.71429 -44.80798,50.71429 -1.46407,0 4.23474,-7.62109 12.66402,-16.93574 8.42928,-9.31466 20.90541,-26.68736 27.72473,-38.60599 l 12.39876,-21.67024 -5.90057,-23.53687 c -10.31692,-41.1533 -13.11048,-72.83562 -9.3606,-106.1605 1.83298,-16.28956 5.19065,-35.22029 7.4615,-42.0683 3.8917,-11.73588 4.05896,-11.87664 2.9125,-2.45093 -0.66898,5.5 -2.74971,22.53352 -4.62386,37.85227 -2.51065,20.52139 -2.60938,34.8097 -0.3751,54.28571 3.58282,31.23109 11.57064,67.86202 14.79814,67.86202 2.93816,0 20.9144,-54.65237 27.72325,-84.28572 4.02521,-17.51848 5.25187,-34.51689 5.25187,-72.77769 0,-44.02387 0.38947,-48.24249 3.29715,-35.71429 1.81344,7.81345 3.42058,27.85928 3.57143,44.5463 0.41891,46.3389 -9.43863,94.86071 -28.77776,141.65286 l -8.4992,20.56431 13.32744,31.57439 c 7.33009,17.36591 14.25578,32.14812 15.39041,32.84935 1.13463,0.70126 6.3659,-13.64955 11.62505,-31.89067 5.25914,-18.24112 13.26168,-42.92013 17.78342,-54.84226 4.52173,-11.92212 8.44432,-23.92658 8.71685,-26.67658 0.27254,-2.75 1.50763,-5 2.74465,-5 1.23702,0 2.24913,-1.44378 2.24913,-3.2084 0,-5.06058 37.02067,-80.72331 38.68326,-79.06073 0.81995,0.81995 -4.41272,14.20166 -11.62815,29.73712 -25.92929,55.82802 -61.34082,161.57024 -61.34082,183.16955 0,6.7254 32.90903,67.0442 37.58332,68.88626 1.32917,0.52383 2.41668,2.40765 2.41668,4.18628 0,1.77866 9.1936,18.70723 20.43022,37.61906 23.14174,38.94877 21.97878,37.21423 23.75805,35.43497 0.73212,-0.73211 -5.16546,-12.13848 -13.10575,-25.34748 -17.8527,-29.69872 -27.65219,-49.09323 -26.70117,-52.8452 0.39831,-1.57143 3.64926,-16.77443 7.22434,-33.78446 3.95374,-18.81169 7.36356,-29.38449 8.70417,-26.98894 3.94211,7.04414 42.99551,159.43094 41.77619,163.01114 -0.65121,1.91211 -4.04809,-2.11234 -7.54863,-8.9432 -3.50055,-6.83083 -7.03815,-11.7462 -7.86135,-10.923 -1.36802,1.36803 29.37051,61.46826 33.12757,64.77131 1.47022,1.29257 12.83071,31.27437 16.50977,43.57143 0.82275,2.75 0.0602,5 -1.69447,5 -1.7547,0 -3.19037,-2.32334 -3.19037,-5.16297 0,-14.66511 -89.11411,-173.40846 -97.3467,-173.40846 -2.48065,0 -9.89186,27.7804 -22.86673,85.71429 -10.5581,47.14286 -22.40259,98.57143 -26.32107,114.28571 l -7.12452,28.57143 -0.27097,-55.71428 c -0.14903,-30.64286 0.96708,-73.84203 2.48026,-95.99818 2.58785,-37.89168 12.75492,-120.53214 15.93422,-129.51737 1.49031,-4.21183 13.46106,11.89106 27.08918,36.44 3.77171,6.79415 7.28626,11.0672 7.81011,9.49563 0.52385,-1.57154 -7.11753,-16.6914 -16.98085,-33.59971 l -17.93331,-30.74235 -3.74584,18.38958 c -10.8085,53.06242 -19.26,154.61985 -21.62178,259.81811 -0.40572,18.07143 -1.01143,-3.14286 -1.34602,-47.14286 z"
       id="path1464"
       inkscape:connector-curvature="0"
       transform="scale(0.26458333)" />
    <path
       style="fill:#00ffff;stroke-width:2.85714293"
       d="m 555.78395,544.45391 c -8.99546,-15.72622 -16.35538,-30.21777 -16.35538,-32.20343 0,-4.77768 25.36353,-93.03998 28.18557,-98.08268 1.33851,-2.39178 6.39573,12.61496 12.9513,38.43157 l 10.7553,42.3556 -9.04871,38.49664 c -4.9768,21.17316 -9.29262,38.74387 -9.59071,39.04604 -0.2981,0.30216 -7.90192,-12.31752 -16.89737,-28.04374 z"
       id="path1466"
       inkscape:connector-curvature="0"
       transform="scale(0.26458333)" />
    <path
       style="fill:#00ffff;stroke-width:2.85714293"
       d="m 201.46593,551.94826 c -1.76066,-5.43377 -13.78347,-69.98843 -17.55999,-94.28572 -1.43397,-9.22584 3.44415,-29.87644 25.30948,-107.14285 39.57721,-139.85563 42.21145,-148.57143 44.90382,-148.57143 6.09048,0 1.58475,89.44839 -7.77175,154.28571 -9.72882,67.41739 -41.52538,206.07214 -44.88156,195.71429 z"
       id="path1468"
       inkscape:connector-curvature="0"
       transform="scale(0.26458333)" />
    <path
       style="fill:#00ffff;stroke-width:2.85714293"
       d="m 65.765542,841.94826 c 0.805664,-2.35715 20.358189,-68.57143 43.450058,-147.14286 23.09186,-78.57143 44.47931,-147.71817 47.52766,-153.6594 3.04835,-5.94126 5.54245,-15.8652 5.54245,-22.0532 0,-9.25817 0.83072,-10.93214 4.69015,-9.45114 4.00953,1.5386 4.41002,0.30654 2.75977,-8.49003 -1.0617,-5.65937 -1.00187,-13.90249 0.13298,-18.31801 l 2.06335,-8.02822 2.03493,7.14286 c 1.91874,6.73497 2.0512,6.77837 2.31974,0.75976 0.41504,-9.30216 -12.76887,-69.93116 -22.86577,-105.15307 -4.79405,-16.72349 -8.10768,-31.01511 -7.36364,-31.75916 3.19041,-3.1904 33.37135,104.13785 33.37135,118.67386 0,3.14204 1.11595,6.40249 2.47989,7.24545 1.36394,0.84297 2.45773,-7.11687 2.43065,-17.68852 -0.0473,-18.46196 8.257,-49.67832 65.72878,-247.07832 0.80064,-2.75 2.78933,-5 4.41929,-5 4.70649,0 0.27043,98.56142 -6.49401,144.28571 -7.19939,48.66427 -22.53858,124.17831 -35.40271,174.28572 -10.69745,41.66791 -9.52434,42.33454 -20.11123,-11.42858 -3.73445,-18.96457 -6.86734,-29.81705 -7.0108,-24.28571 -0.27389,10.55971 12.63884,85.34537 15.17365,87.88017 2.49718,2.49717 7.32702,-13.02026 18.90462,-60.73731 12.51393,-51.5761 26.5004,-119.5102 32.41021,-157.42054 2.70681,-17.36369 4.06814,-21.80947 4.28934,-14.00803 0.66958,23.61439 -14.18682,102.26324 -37.46144,198.31851 l -14.82314,61.17566 6.59726,44.53863 c 11.37581,76.79902 9.32519,73.56614 -8.47234,-13.357 -3.25011,-15.87355 -6.44943,-17.29755 -9.70651,-4.32029 -3.35973,13.3862 -19.15658,52.67751 -20.59886,51.23523 -0.75253,-0.75254 4.61481,-20.02823 11.92745,-42.83489 l 13.29569,-41.46663 -7.66904,-45.21605 c -7.21879,-42.56143 -9.90675,-54.13792 -9.90675,-42.66646 0,2.7118 -1.0024,4.311 -2.22755,3.55383 -3.20106,-1.97837 -1.97397,9.56791 2.08417,19.61088 7.86235,19.45752 14.69316,75.71429 9.19339,75.71429 -1.30821,0 -6.57478,-13.82143 -11.70348,-30.71429 -13.09053,-43.1174 -11.79208,-40.23791 -15.02337,-33.31611 -2.12461,4.55114 0.0453,14.95257 9.13225,43.77497 8.15983,25.88174 11.32104,40.21929 10.02301,45.45897 -4.13258,16.68186 -34.46068,92.12157 -47.87314,119.08217 -17.8646,35.90992 -40.983507,70.8874 -56.654183,85.71429 -6.643433,6.28571 -11.41979,9.5 -10.614125,7.14286 z"
       id="path1470"
       inkscape:connector-curvature="0"
       transform="scale(0.26458333)" />
    <path
       style="fill:#00ffff;stroke-width:2.85714293"
       d="m 66.151073,840.51969 c 0.907438,-3.14286 13.261041,-44.92858 27.452453,-92.85715 14.191414,-47.92857 25.982714,-91 26.202894,-95.71428 0.31511,-6.74681 0.66391,-7.20297 1.63853,-2.14286 1.16821,6.0652 2.61059,6.42857 25.51773,6.42857 28.22249,0 27.19668,-4.52399 9.24461,40.77011 -15.14769,38.21848 -34.45817,76.2431 -52.5695,103.51561 -16.171973,24.35215 -40.447804,50.25555 -37.486717,40 z"
       id="path1472"
       inkscape:connector-curvature="0"
       transform="scale(0.26458333)" />
    <path
       style="fill:#aa0000;stroke-width:2.85714293"
       d="m 66.111805,840.51969 c 0.88584,-3.14286 13.124534,-44.92858 27.197098,-92.85715 41.965307,-142.92615 61.220537,-205.71428 63.086367,-205.71428 0.96898,0 7.34366,18.49353 14.16595,41.09673 l 12.40417,41.09673 -4.98306,15.33184 c -18.15731,55.86625 -49.31551,123.36294 -74.343,161.04613 -16.232559,24.44091 -40.403785,50.20462 -37.527525,40 z"
       id="path1474"
       inkscape:connector-curvature="0"
       transform="scale(0.26458333)" />
    <path
       style="fill:#aa0000;stroke-width:2.85714293"
       d="M 254.20693,832.92557 C 241.7554,793.04449 226.87187,722.83969 213.92289,642.90791 c -4.54051,-28.02782 -8.3735,-47.37088 -8.51776,-42.9846 -0.14425,4.38626 3.04188,29.83098 7.08028,56.54378 4.0384,26.7128 6.86732,49.9944 6.28649,51.73688 -0.58083,1.74252 -4.71939,-15.98791 -9.1968,-39.40091 -4.47741,-23.413 -8.7296,-44.17623 -9.44932,-46.14052 -2.17754,-5.94305 -5.67712,-4.02923 -7.75247,4.23963 -3.32579,13.251 -19.1455,52.65486 -20.56841,51.23194 -0.73952,-0.73951 4.51112,-19.791 11.66809,-42.33665 l 13.01268,-40.99206 -7.46039,-46.27226 c -6.69471,-41.52323 -7.90879,-45.82383 -11.82945,-41.90317 -3.92066,3.92066 -3.74884,6.1772 1.67419,21.98654 7.13299,20.79429 11.98712,46.65266 11.98712,63.85649 0,12.34897 -4.05245,16.73131 -6.78043,7.3324 -12.72097,-43.82843 -19.84113,-63.34794 -22.50661,-61.70057 -2.01622,1.24608 -2.43838,0.16668 -1.1985,-3.0644 1.05276,-2.74346 1.91411,-9.98546 1.91411,-16.09332 0,-8.69748 0.9292,-10.74865 4.28572,-9.46065 3.49625,1.34165 4.3227,-1.43797 4.48653,-15.08966 0.1439,-11.99174 0.89671,-15.11482 2.65633,-11.01997 7.92925,18.45237 -6.552,-56.67721 -20.28547,-105.24216 -4.81472,-17.02604 -8.1386,-31.57187 -7.38641,-32.32406 2.983,-2.983 33.38616,103.21835 33.38616,116.62129 0,2.69137 1.42622,5.77485 3.16937,6.85218 2.23614,1.38201 2.59286,-1.45354 1.21148,-9.62986 -2.15606,-12.76162 -1.30391,-16.29765 34.56272,-143.42025 29.26391,-103.72048 32.59652,-114.28571 36.04927,-114.28571 4.78922,0 0.55251,95.35977 -6.41042,144.28571 -10.55158,74.14207 -41.70067,214.23294 -45.94727,206.64472 -1.19402,-2.1336 -4.88245,-17.93 -8.19652,-35.10309 -5.58198,-28.92517 -8.72993,-39.70958 -8.72044,-29.87497 0.004,4.58228 6.93634,45.00303 11.59626,67.61906 1.69988,8.25 4.10213,15 5.33833,15 4.69994,0 32.66285,-118.61343 46.03851,-195.28669 4.4272,-25.37804 8.13476,-40.99903 8.23902,-34.71331 0.3904,23.53646 -13.5331,98.38397 -34.43711,185.121 -7.87451,32.67371 -13.84598,60.82062 -13.26995,62.54874 1.4544,4.3632 26.33019,-96.5374 36.49892,-148.04607 4.61255,-23.36445 10.62021,-58.87367 13.35035,-78.90939 2.73013,-20.03571 5.79594,-36.42857 6.81292,-36.42857 1.01697,0 4.0924,13.67043 6.8343,30.37873 14.67891,89.44912 42.06519,139.7043 88.68772,162.74641 19.78727,9.7794 20.76698,10.71695 18.68762,17.88337 -6.60085,22.74946 -62.78169,166.26643 -90.75896,231.84863 -7.70925,18.07143 -17.02056,41.21429 -20.6918,51.42857 -8.54573,23.77629 -10.23557,25.46229 -13.86596,13.83446 z"
       id="path1476"
       inkscape:connector-curvature="0"
       transform="scale(0.26458333)" />
    <path
       style="fill:#aa0000;stroke-width:2.85714293"
       d=""
       id="path1478"
       inkscape:connector-curvature="0"
       transform="scale(0.26458333)" />
    <path
       style="fill:#aa0000;stroke-width:2.85714293"
       d="m 447.10605,687.48108 c -29.5631,-80.4043 -53.13688,-147.79022 -52.38619,-149.74649 0.75068,-1.95626 6.93867,-4.9682 13.75108,-6.69318 25.04326,-6.34126 54.15941,-30.37447 75.19781,-62.07015 5.83499,-8.7908 10.95584,-15.57435 11.37965,-15.07456 0.42381,0.49978 6.81913,15.16232 14.21183,32.58342 l 13.44125,31.67473 -7.22073,44.03956 c -9.75405,59.49041 -10.88692,75.36129 -12.89238,180.61508 l -1.73123,90.86122 z"
       id="path1480"
       inkscape:connector-curvature="0"
       transform="scale(0.26458333)" />
    <path
       style="fill:#aa0000;stroke-width:2.85714293"
       d="m 514.68741,741.94826 c 1.19781,-58.74777 3.4307,-97.27112 7.36946,-127.14286 8.39825,-63.69263 9.42249,-70.04731 11.49679,-71.32931 1.04414,-0.64529 8.75518,9.71348 17.13565,23.01951 8.38047,13.30603 15.87287,23.55714 16.64979,22.78023 1.7492,-1.7492 -31.3292,-61.61329 -34.04494,-61.61329 -4.62993,0 -14.22319,62.67529 -19.46085,127.14286 -1.65971,20.42857 -3.43505,42.28571 -3.94519,48.57143 -0.51014,6.28571 -1.14366,0.89146 -1.40783,-11.98723 -0.67244,-32.78354 4.49,-89.68486 12.26214,-135.15563 6.42726,-37.60254 6.46492,-38.8944 1.49888,-51.42857 -10.14526,-25.60644 -23.48439,-55.76857 -25.72846,-58.17662 -1.26206,-1.35428 -5.81047,2.85043 -10.10758,9.3438 -10.77857,16.28752 -12.1004,12.59903 -1.89105,-5.27687 l 8.36256,-14.6423 -6.93202,-27.76686 c -5.23682,-20.97656 -7.17659,-37.54874 -7.93208,-67.76686 l -1.00005,-40 2.41304,34.28571 c 3.13424,44.53309 11.47138,87.14286 17.0506,87.14286 4.09124,0 19.91633,-46.13313 28.91262,-84.28572 1.8527,-7.85714 4.26926,-34.85714 5.37013,-60 l 2.0016,-45.71428 0.47683,40.97976 c 0.55854,48.00149 -5.12922,81.52329 -21.29908,125.52983 -5.61336,15.27687 -10.87855,30.69107 -11.70042,34.25378 -1.67082,7.24287 24.1116,70.06416 27.81549,67.77503 1.22184,-0.75514 10.66936,-26.77091 20.9945,-57.81283 16.41624,-49.35449 32.63255,-89.84729 33.08732,-82.62044 0.0828,1.31496 -6.30847,19.73095 -14.2027,40.9244 -17.4195,46.76569 -31.37539,95.47756 -31.32094,109.32312 0.0394,10.01058 11.69795,34.43315 30.12471,63.10569 20.37067,31.69731 32.17896,60.31386 14.15668,34.30769 -4.37573,-6.31418 -8.9629,-11.48032 -10.19372,-11.48032 -2.23943,0 -8.66404,26.11932 -38.65265,157.14286 -8.81187,38.5 -16.70921,70.64286 -17.54965,71.42857 -0.84044,0.78571 -0.75475,-36.5 0.19043,-82.85714 z"
       id="path1482"
       inkscape:connector-curvature="0"
       transform="scale(0.26458333)" />
    <path
       style="fill:#aa0000;stroke-width:2.85714293"
       d="m 489.71959,382.66254 c -5.74294,-31.29081 -5.88672,-79.02406 -0.32627,-108.32009 5.03175,-26.5105 21.38535,-75.63707 24.53136,-73.69273 1.21169,0.74886 4.32474,10.66881 6.91791,22.04434 6.178,27.10129 6.23888,73.89534 0.13828,106.29339 -5.58228,29.64537 -20.69267,78.67509 -24.24676,78.67509 -1.33439,0 -4.49093,-11.25 -7.01452,-25 z"
       id="path1484"
       inkscape:connector-curvature="0"
       transform="scale(0.26458333)" />
    <path
       style="fill:#aa0000;stroke-width:2.85714293"
       d="M 584.54693,435.73619 573.951,394.94553 585.51475,367.73261 c 13.28503,-31.26362 59.96179,-123.54591 61.64078,-121.86692 1.18088,1.18088 -27.47399,130.35664 -42.94642,193.60187 l -9.06625,37.05928 z"
       id="path1486"
       inkscape:connector-curvature="0"
       transform="scale(0.26458333)" />
    <path
       style="fill:#aa0000;stroke-width:2.85714293"
       d="m 150.97982,458.48481 c -5.0676,-11.33346 -15.45817,-39.9406 -23.09016,-63.57142 C 100.58031,310.35587 73.487135,221.22303 74.719458,219.9907 c 1.973731,-1.97373 29.604592,45.12286 41.769462,71.19573 24.60411,52.73376 53.30964,153.49846 50.0705,175.76183 -0.97168,6.67857 -2.80149,12.14285 -4.06624,12.14285 -1.26475,0 -6.44576,-9.27283 -11.51336,-20.6063 z"
       id="path1488"
       inkscape:connector-curvature="0"
       transform="scale(0.26458333)" />
    <path
       style="fill:#aa0000;stroke-width:2.85714293"
       d=""
       id="path1490"
       inkscape:connector-curvature="0"
       transform="scale(0.26458333)" />
    <path
       style="fill:#aa0000;stroke-width:2.85714293"
       d=""
       id="path1492"
       inkscape:connector-curvature="0"
       transform="scale(0.26458333)" />
    <path
       style="fill:#ffff00;stroke-width:2.85714293"
       d="m 320.85714,1018.7627 c -54.52953,-5.1175 -145.67872,-21.16521 -215.71428,-37.97866 l -15.714289,-3.77253 12.857139,-1.69394 c 7.07143,-0.93166 42.42858,-3.09798 78.57143,-4.81403 36.14286,-1.71606 137.07143,-7.56732 224.28572,-13.00281 87.21428,-5.43549 179.14285,-11.16015 204.28571,-12.72148 25.14286,-1.56132 50.7244,-3.38284 56.84786,-4.04782 10.8876,-1.18233 11.01383,-1.0916 5.71428,4.1068 -16.65614,16.33822 -72.86591,45.64304 -106.84785,55.70487 L 558,1002.658 l 6.00351,-6.78343 c 9.14852,-10.33702 10.23175,-13.32852 7.00769,-19.35274 -8.11011,-15.1539 -43.28823,-14.88809 -152.90803,1.15539 -37.52454,5.49193 -72.42996,9.98532 -77.56761,9.98532 -13.01279,0 -14.59631,4.69174 -2.3584,6.98759 12.39397,2.32512 32.2434,0.62498 117.7563,-10.08602 90.60745,-11.34913 109.38234,-10.94959 105.19657,2.23868 -5.51509,17.37651 -26.9722,25.39241 -86.10294,32.16611 -29.74989,3.408 -116.90089,3.2915 -154.16995,-0.2061 z"
       id="path1494"
       inkscape:connector-curvature="0"
       transform="scale(0.26458333)" />
    <path
       style="fill:#0000ff;stroke-width:2.85714293"
       d="m 109.42857,962.28494 c 223.98512,-63.82448 322.8458,-83.77589 417.14286,-84.18503 70.82617,-0.30731 109.19974,11.12869 136.4154,40.65419 l 12.11771,13.14617 -12.83797,2.04924 c -7.06091,1.12707 -62.338,4.74558 -122.838,8.04113 C 380.799,950.6315 171.29415,963.49317 99.428571,969.00261 l -18.571428,1.42374 z m 211.42857,-30.08671 c 43.38157,-5.27209 109.3846,-9.57797 198.1256,-12.92526 38.25483,-1.44296 70.29055,-3.35989 71.19049,-4.25985 4.74017,-4.74016 -9.47414,-5.68727 -84.43969,-5.62624 -99.19763,0.0807 -162.38072,5.8945 -219.8764,20.23175 -18.37695,4.58253 -25.38312,11.47093 -8.57143,8.42736 5.10715,-0.9246 24.71429,-3.55609 43.57143,-5.84776 z"
       id="path1496"
       inkscape:connector-curvature="0"
       transform="scale(0.26458333)" />
    <path
       style="fill:#0000ff;stroke-width:2.85714293"
       d="m 313.71429,1017.326 c -3.92858,-0.6919 -25.78572,-3.8997 -48.57143,-7.1284 -35.49137,-5.0292 -78.99431,-13.16719 -152.21094,-28.4739 -9.07316,-1.89684 -16.072489,-3.87297 -15.554063,-4.39139 0.518425,-0.51843 47.799063,-3.58087 105.068083,-6.80542 106.68183,-6.00676 409.9634,-24.49632 448.4112,-27.33739 l 21.42857,-1.58345 -10,8.83942 c -15.97665,14.12244 -92.32491,51.55883 -96.54442,47.33932 -0.83369,-0.83368 0.6192,-3.87491 3.2286,-6.75828 6.36108,-7.02891 5.97531,-12.79741 -1.29406,-19.34972 -9.54309,-8.60174 -65.50472,-7.02165 -146.81869,4.14546 -36.14285,4.96361 -71.1486,9.73253 -77.79055,10.5976 -14.49933,1.88844 -18.18263,6.06603 -7.67378,8.70359 10.19541,2.55888 45.52025,-0.13677 115.28699,-8.79763 55.06537,-6.83582 104.38557,-9.69313 107.8316,-6.2471 4.46954,4.46954 -2.90243,16.53013 -13.36723,21.86889 -24.53726,12.518 -45.00851,14.8733 -137.14417,15.7794 -47.92857,0.4713 -90.35714,0.2909 -94.28571,-0.401 z"
       id="path1498"
       inkscape:connector-curvature="0"
       transform="scale(0.26458333)" />
    <path
       style="fill:#0000ff;stroke-width:2.85714293"
       d=""
       id="path1500"
       inkscape:connector-curvature="0"
       transform="scale(0.26458333)" />
    <path
       style="fill:#0000ff;stroke-width:2.85714293"
       d=""
       id="path1502"
       inkscape:connector-curvature="0"
       transform="scale(0.26458333)" />
    <path
       style="fill:#0000ff;stroke-width:2.85714293"
       d="m 268,830.68996 c 0,-9.00043 19.51932,-54.02341 51.47943,-118.7417 36.15809,-73.21909 45.98456,-96.70908 57.22475,-136.79479 l 5.70569,-20.34807 -1.64213,15.71429 c -3.15665,30.20754 -22.77936,80.31796 -62.31243,159.12695 -21.13024,42.12303 -40.6587,82.69447 -43.39656,90.15876 C 270.26588,832.87227 268,836.36625 268,830.68996 Z"
       id="path1504"
       inkscape:connector-curvature="0"
       transform="scale(0.26458333)" />
    <path
       style="fill:#0000ff;stroke-width:2.85714293"
       d="m 479.70081,798.8046 c -37.67721,-91.02004 -87.4242,-229.72455 -85.43776,-238.2175 0.4839,-2.06886 23.12006,56.02742 50.3026,129.10284 27.18254,73.07542 48.97552,134.20624 48.42884,135.84627 -0.54668,1.64003 -6.52883,-10.3892 -13.29368,-26.73161 z"
       id="path1506"
       inkscape:connector-curvature="0"
       transform="scale(0.26458333)" />
    <path
       style="fill:#0000ff;stroke-width:2.85714293"
       d=""
       id="path1508"
       inkscape:connector-curvature="0"
       transform="scale(0.26458333)" />
    <path
       style="fill:#0000ff;stroke-width:2.85714293"
       d=""
       id="path1510"
       inkscape:connector-curvature="0"
       transform="scale(0.26458333)" />
    <path
       style="fill:#0000ff;stroke-width:2.85714293"
       d="m 251.08782,816.4486 c -10.68819,-39.61097 -19.47657,-81.20211 -31.72162,-150.12297 -6.41248,-36.09243 -12.41548,-66.30672 -13.34,-67.14286 -1.549,-1.40088 -0.56841,13.59689 3.2631,49.90834 1.23288,11.68406 0.59383,10.38323 -3.50908,-7.14285 -4.07092,-17.38949 -5.99944,-21.34555 -10.2314,-20.98815 -4.05674,0.3426 -4.81485,-0.92645 -3.41352,-5.71428 4.60683,-15.73994 4.68213,-25.72352 0.40322,-53.46246 -6.08144,-39.42426 -10.23576,-56.97797 -13.48459,-56.97797 -5.8047,0 -5.79295,9.84849 0.0352,29.48051 6.54656,22.05218 11.24734,54.03632 9.31459,63.37663 -0.71414,3.45117 -5.66517,-7.2986 -12.50122,-27.14285 -13.40589,-38.91578 -15.68591,-51.77815 -10.17429,-57.39686 2.17518,-2.21743 5.65034,-11.17543 7.72257,-19.90663 3.24234,-13.66132 3.125,-18.98273 -0.84152,-38.16276 -4.92466,-23.81313 -5.80628,-36.48061 -1.70748,-24.53375 1.34784,3.92857 3.90892,14.53571 5.69129,23.57142 3.94409,19.99453 8.54983,21.43875 8.54983,2.68097 0,-7.56119 2.64256,-23.95405 5.87236,-36.42857 11.44632,-44.20941 57.65098,-205.60284 60.0696,-209.82382 4.01025,-6.99873 2.9579,66.35765 -1.55755,108.57142 -7.76465,72.58986 -41.27942,233.40775 -47.21989,226.5808 -1.09839,-1.26231 -4.30429,-13.86651 -7.12424,-28.00937 -5.72283,-28.7017 -9.81324,-39.37858 -9.9534,-25.98063 -0.11551,11.04135 11.13491,71.02312 14.27407,76.10238 3.90354,6.31605 6.14401,1.76831 14.50752,-29.44775 9.88107,-36.88023 10.54396,-30.06748 1.13153,11.62906 -7.71394,34.17229 -8.67096,42.04237 -4.17553,34.33754 7.83494,-13.42845 39.79463,-159.70459 48.58204,-222.35488 1.8735,-13.35715 4.32509,-25.29092 5.448,-26.51951 1.1229,-1.22858 4.23468,10.04408 6.91507,25.05037 15.22997,85.26584 41.7057,132.70471 88.9447,159.36988 13.46276,7.5994 16.99823,11.00174 16.46915,15.84911 -1.09624,10.0434 -91.27946,240.09838 -116.07986,296.11658 -3.7118,8.38408 -3.77655,8.28614 -10.15861,-15.36609 z"
       id="path1512"
       inkscape:connector-curvature="0"
       transform="scale(0.26458333)" />
    <path
       style="fill:#0000ff;stroke-width:2.85714293"
       d="m 474.05735,757.27169 c -36.51832,-99.63396 -73.97312,-204.44638 -76.07339,-212.88154 -1.70234,-6.83698 -0.83723,-7.88951 9.06707,-11.03133 26.99933,-8.56469 53.08007,-29.35931 74.53888,-59.43114 l 12.91608,-18.10028 13.45759,31.17647 13.45759,31.17646 -6.59056,40.42811 c -8.67291,53.20173 -12.39604,97.48776 -12.8913,153.33982 -0.22294,25.14285 -1.2005,60.32411 -2.17234,78.18057 L 498,822.59514 Z"
       id="path1514"
       inkscape:connector-curvature="0"
       transform="scale(0.26458333)" />
    <path
       style="fill:#0000ff;stroke-width:2.85714293"
       d="m 517.70333,729.09111 c 0.85684,-61.02707 2.63162,-91.51927 7.48342,-128.57142 3.4981,-26.71429 7.3637,-49.66586 8.59021,-51.0035 1.22651,-1.33763 8.82478,7.34094 16.88503,19.28572 8.06025,11.94478 15.39806,21.71778 16.30624,21.71778 0.90819,0 0.84451,-3.21429 -0.14151,-7.14286 -2.65867,-10.593 -0.2038,-8.7326 8.11356,6.14877 7.4935,13.40733 8.36318,19.1057 1.68844,11.06313 -8.49991,-10.24177 -6.65529,-15.89492 -35.87033,109.93096 -11.85809,51.07142 -22.14924,94.14285 -22.86922,95.71428 -0.71999,1.57143 -0.80361,-33.14286 -0.18584,-77.14286 z"
       id="path1516"
       inkscape:connector-curvature="0"
       transform="scale(0.26458333)" />
    <path
       style="fill:#00ffff;stroke-width:2.85714293"
       d="m 585.18967,432.97086 -9.78798,-38.92456 5.3232,-12.47759 c 13.1373,-30.79383 59.86732,-123.27239 60.8304,-120.38316 1.0413,3.1239 -22.54615,111.82392 -38.59904,177.87914 l -7.97859,32.83073 z"
       id="path1518"
       inkscape:connector-curvature="0"
       transform="scale(0.26458333)" />
    <path
       style="fill:#00ffff;stroke-width:2.85714293"
       d="m 68.556193,836.23397 c 0.838825,-2.35714 6.953006,-22.92857 13.587069,-45.71428 23.368138,-80.26148 71.978318,-241.35968 73.195878,-242.57724 2.18563,-2.18563 3.23103,0.54976 15.0121,39.28078 l 11.59891,38.13212 -12.3198,33.29645 c -24.9079,67.31806 -52.22116,121.89208 -77.436936,154.72503 -13.551906,17.64566 -26.101066,29.78068 -23.637221,22.85714 z"
       id="path1520"
       inkscape:connector-curvature="0"
       transform="scale(0.26458333)" />
    <path
       style="fill:#00ffff;stroke-width:2.85714293"
       d="m 179.85203,578.13849 c -15.81964,-42.28178 -17.06547,-54.37972 -7.99307,-77.6188 2.45391,-6.28572 4.53777,-17.21429 4.63081,-24.28572 0.1195,-9.08294 0.94943,-11.62336 2.8272,-8.65417 3.85496,6.09557 4.70896,3.95551 8.3158,-20.83872 2.9367,-20.18754 27.05043,-109.92414 52.72797,-196.22139 11.62137,-39.05718 12.64898,-36.28358 10.05635,27.14285 -2.41725,59.13567 -21.06337,172.23904 -39.91006,242.08583 -6.98818,25.89857 -8.14314,25.30909 -15.28315,-7.80011 -6.02889,-27.95681 -9.99937,-33.40517 -10.30659,-14.14286 -0.12406,7.77857 -0.87406,12.53571 -1.66666,10.57143 -0.79261,-1.96429 -3.26253,-3.57143 -5.48873,-3.57143 -5.54601,0 -5.14449,10.36789 1.42001,36.66683 5.98807,23.98966 10.21684,51.9046 7.86291,51.9046 -0.82027,0 -4.05702,-6.85726 -7.19279,-15.23834 z"
       id="path1522"
       inkscape:connector-curvature="0"
       transform="scale(0.26458333)" />
    <path
       style="fill:#0000ff;stroke-width:2.85714293"
       d="m 585.58235,429.50205 -9.20042,-36.73193 30.12879,-61.56737 c 16.57083,-33.86205 30.71124,-60.98492 31.42312,-60.27303 1.18995,1.18995 -29.75526,143.31743 -39.10186,179.58997 l -4.04921,15.71428 z"
       id="path1524"
       inkscape:connector-curvature="0"
       transform="scale(0.26458333)" />
    <path
       style="fill:#0000ff;stroke-width:2.85714293"
       d="M 152.48311,458.37683 C 138.79272,427.40781 77.390103,234.46292 80.299162,231.55386 c 2.585579,-2.58558 33.193738,54.94326 44.768868,84.14426 27.3026,68.87731 48.17429,157.67871 37.06046,157.67871 -1.6579,0 -5.99832,-6.75 -9.64538,-15 z"
       id="path1526"
       inkscape:connector-curvature="0"
       transform="scale(0.26458333)" />
    <path
       style="fill:#00ffff;stroke-width:2.85714293"
       d="m 495.6466,401.94826 c -8.62536,-23.77993 -10.53932,-102.89637 -3.2486,-134.28572 6.60785,-28.44931 18.656,-63.07271 21.36522,-61.39833 5.30011,3.27565 9.66833,36.17804 9.47905,71.39833 -0.16008,29.78565 -1.6597,43.08522 -7.57082,67.14286 -9.39868,38.25158 -17.98735,62.76019 -20.02485,57.14286 z"
       id="path1528"
       inkscape:connector-curvature="0"
       transform="scale(0.26458333)" />
    <path
       style="fill:#00ffff;stroke-width:2.85714293"
       d="m 258,1007.7615 c -64.96068,-10.62371 -142.2119,-26.05736 -145.57143,-29.083 -1.55687,-1.40215 1.89483,-2.44453 8.09471,-2.44453 12.20275,0 238.49184,-13.37775 413.83189,-24.46489 63.99534,-4.04657 119.92392,-6.94739 124.28572,-6.44626 7.23597,0.83135 6.05377,2.08606 -13.49803,14.3259 -20.3562,12.74341 -55.99015,30.28931 -71.40617,35.15987 -6.27589,1.98281 -6.675,1.71292 -3.36498,-2.27543 2.06552,-2.48878 3.34115,-8.13853 2.83475,-12.55498 -1.20857,-10.54008 -13.44052,-14.79598 -43.14486,-15.01152 -33.90891,-0.24605 -196.31562,18.85466 -201.11405,23.6531 -0.83587,0.83586 -0.67227,2.891 0.36354,4.56698 3.03139,4.90489 41.04963,3.5342 108.68891,-3.91863 84.99271,-9.36492 117.41731,-11.49872 119.65726,-7.87441 0.99523,1.61032 -1.45132,6.80314 -5.43677,11.5396 -15.49555,18.4154 -50.57769,23.2362 -167.07763,22.9587 -71.84519,-0.1711 -82.72947,-0.8671 -127.14286,-8.1305 z"
       id="path1642"
       inkscape:connector-curvature="0"
       transform="scale(0.26458333)" />
    <path
       style="fill:#00ffff;stroke-width:2.85714293"
       d="m 736.57143,227.23264 c -16.56849,-13.9903 -37.30006,-24.54328 -68.73677,-34.98907 -55.99926,-18.6074 -125.53677,-30.43435 -295.54895,-50.267 -174.30924,-20.33393 -224.62436,-28.1962 -267.87003,-41.8575 -29.904025,-9.446674 -26.757048,-11.74175 3.91971,-2.858619 34.1147,9.878669 82.07234,17.003489 213.95032,31.785499 237.7264,26.64642 321.66263,42.23243 378.47275,70.27812 21.65174,10.68892 50.35723,31.93768 47.23854,34.96754 -0.78406,0.76172 -5.92557,-2.41481 -11.42557,-7.05897 z"
       id="path1653"
       inkscape:connector-curvature="0"
       transform="scale(0.26458333)" />
    <path
       style="fill:#000080;stroke-width:2.85714293"
       d="m 121.75,102.85365 c 2.0625,-0.82535 4.52679,-0.72385 5.47619,0.22556 0.94941,0.9494 -0.73809,1.62469 -3.75,1.50063 -3.32841,-0.1371 -4.00543,-0.81412 -1.72619,-1.72619 z"
       id="path1661"
       inkscape:connector-curvature="0"
       transform="scale(0.26458333)" />
    <path
       style="fill:#000080;stroke-width:2.85714293"
       d=""
       id="path1663"
       inkscape:connector-curvature="0"
       transform="scale(0.26458333)" />
    <path
       style="fill:#000080;stroke-width:2.85714293"
       d="M 663.71429,190.35244 C 612.65917,172.68396 551.82794,162.53818 347.40118,137.59594 218.85804,121.91232 165.74292,114.37135 179.42857,113.74818 c 3.92857,-0.17888 21.64868,1.5912 39.37801,3.93351 17.72933,2.34232 76.87219,9.46805 131.42857,15.83497 196.38156,22.91839 289.74485,39.66245 333.41839,59.7963 16.69657,7.69725 6.46995,6.17884 -19.93925,-2.96052 z"
       id="path1665"
       inkscape:connector-curvature="0"
       transform="scale(0.26458333)" />
    <path
       style="fill:#000080;stroke-width:2.85714293"
       d="m 259.42857,124.71573 c 0,-1.52211 1.92857,-2.76747 4.28572,-2.76747 5.48762,0 5.48762,1.78456 0,3.89036 -2.35715,0.90452 -4.28572,0.39922 -4.28572,-1.12289 z"
       id="path1667"
       inkscape:connector-curvature="0"
       transform="scale(0.26458333)" />
  </g>
</svg>
